<?xml version="1.0" encoding="UTF-8" standalone="no"?>
<!-- Created with Inkscape (http://www.inkscape.org/) -->

<svg
   xmlns:dc="http://purl.org/dc/elements/1.1/"
   xmlns:cc="http://creativecommons.org/ns#"
   xmlns:rdf="http://www.w3.org/1999/02/22-rdf-syntax-ns#"
   xmlns:svg="http://www.w3.org/2000/svg"
   xmlns="http://www.w3.org/2000/svg"
   xmlns:sodipodi="http://sodipodi.sourceforge.net/DTD/sodipodi-0.dtd"
   xmlns:inkscape="http://www.inkscape.org/namespaces/inkscape"
   width="210.39394mm"
   height="118.75848mm"
   viewBox="0 0 745.49032 420.79775"
   id="svg4183"
   version="1.1"
   inkscape:version="0.91 r13725"
   sodipodi:docname="SpaceSchool-logo.svg">
  <defs
     id="defs4185" />
  <sodipodi:namedview
     id="base"
     pagecolor="#ffffff"
     bordercolor="#666666"
     borderopacity="1.0"
     inkscape:pageopacity="0.0"
     inkscape:pageshadow="2"
     inkscape:zoom="0.35"
     inkscape:cx="-47.968995"
     inkscape:cy="-104.26033"
     inkscape:document-units="px"
     inkscape:current-layer="layer1"
     showgrid="false"
     fit-margin-top="0"
     fit-margin-left="0"
     fit-margin-right="0"
     fit-margin-bottom="0"
     inkscape:window-width="1920"
     inkscape:window-height="1017"
     inkscape:window-x="-8"
     inkscape:window-y="-8"
     inkscape:window-maximized="1" />
  <metadata
     id="metadata4188">
    <rdf:RDF>
      <cc:Work
         rdf:about="">
        <dc:format>image/svg+xml</dc:format>
        <dc:type
           rdf:resource="http://purl.org/dc/dcmitype/StillImage" />
        <dc:title></dc:title>
      </cc:Work>
    </rdf:RDF>
  </metadata>
  <g
     inkscape:label="Layer 1"
     inkscape:groupmode="layer"
     id="layer1"
     transform="translate(-1.5404238,-7.3041146)">
    <g
       transform="matrix(1.2858247,0,0,1.2858247,1659.795,12.815464)"
       id="logo">
      <path
         sodipodi:nodetypes="cssscscccsc"
         inkscape:connector-curvature="0"
         id="path4173"
         d="m -1185.5745,133.76992 c 0,0 -105.4715,26.69262 -103.5421,66.12225 2.2305,45.58154 202.0585,60.60524 296.11089,60.04238 200.12999,-1.19768 283.52094,-59.40355 282.63173,-84.12463 -1.48976,-41.41718 -106.95315,-43.11053 -106.95315,-43.11053 0,0 77.3595,22.38101 77.70837,42.10179 0.27234,15.39477 -122.81147,62.37932 -250.64788,59.39693 l -9.37399,16.44373 -10.63667,-17.14384 c -52.3716,8.05246 -237.7332,-12.77889 -237.2979,-41.56495 0.4353,-28.78606 62.0007,-58.16313 62.0007,-58.16313 z"
         style="fill:#ffffff;fill-rule:evenodd;stroke:#000000;stroke-width:1px;stroke-linecap:butt;stroke-linejoin:miter;stroke-opacity:1" />
      <g
         id="text4175"
         style="font-style:normal;font-weight:normal;font-size:85.84013367px;line-height:125%;font-family:sans-serif;letter-spacing:0px;word-spacing:0px;fill:#ffffff;fill-opacity:1;stroke:#000000;stroke-width:1px;stroke-linecap:butt;stroke-linejoin:miter;stroke-opacity:1"
         transform="matrix(0.75544923,0,0,1.3237157,-1363.2815,-147.05153)">
        <path
           inkscape:connector-curvature="0"
           id="path4180"
           style="font-style:normal;font-variant:normal;font-weight:normal;font-stretch:condensed;font-size:193.14028931px;font-family:impact;-inkscape-font-specification:'impact Condensed';fill:#ffffff;stroke:#000000;stroke-opacity:1"
           d="m 329.62345,197.11461 -36.87395,0 0,-8.30414 q 0,-5.8129 -1.4146,-7.40453 -1.4146,-1.59163 -4.71534,-1.59163 -3.58366,0 -5.46979,2.14524 -1.79183,2.14524 -1.79183,6.50492 0,5.6053 2.07475,8.44254 1.98044,2.83725 11.2225,6.85092 26.50021,11.55661 33.3846,18.96113 6.8844,7.40453 6.8844,23.87442 0,11.97181 -3.86658,17.64631 -3.77227,5.6745 -14.71186,9.54977 -10.93958,3.80606 -25.46283,3.80606 -15.93784,0 -27.25466,-4.42887 -11.22251,-4.42889 -14.71186,-11.2798 -3.48935,-6.85092 -3.48935,-19.44554 l 0,-7.33533 36.87395,0 0,13.63263 q 0,6.29732 1.50891,8.09655 1.60322,1.79923 5.5641,1.79923 3.96089,0 5.84702,-2.28364 1.98045,-2.28364 1.98045,-6.78172 0,-9.89577 -3.67797,-12.94062 -3.77227,-3.04486 -18.57843,-10.17258 -14.80617,-7.19693 -19.61582,-10.44938 -4.80964,-3.25246 -8.01607,-8.99616 -3.11213,-5.7437 -3.11213,-14.67065 0,-12.87144 4.43242,-18.82274 4.52673,-5.9513 14.52325,-9.27296 9.99652,-3.39086 24.14253,-3.39086 15.46632,0 26.3116,3.66767 10.93958,3.66766 14.42893,9.27296 3.58366,5.53609 3.58366,18.89193 l 0,4.42887 z" />
        <path
           sodipodi:nodetypes="cscccssscsccccscccscssscc"
           inkscape:connector-curvature="0"
           id="path4182"
           style="font-style:normal;font-variant:normal;font-weight:normal;font-stretch:condensed;font-size:193.14028931px;font-family:impact;-inkscape-font-specification:'impact Condensed';fill:#ffffff;stroke:#000000;stroke-opacity:1"
           d="m 290.64364,151.46815 c 0,0 30.00027,-22.6392 94.14084,-22.51201 10.81378,0.0214 19.11285,0.84876 24.897,2.54628 5.84702,1.69753 10.21657,4.1495 13.10864,7.35593 2.95495,3.20643 4.93539,7.10445 5.94132,11.69404 1.06881,4.52673 1.60322,11.5683 1.60322,21.12472 l 0,13.29726 c 0,9.74503 -1.00594,16.84948 -3.01782,21.31333 -2.01187,4.46385 -5.72127,7.89033 -11.1282,10.27944 -5.34405,2.38911 -12.35418,3.58366 -21.03041,3.58366 l -10.65667,0 0,61.48802 -39.70315,0 -0.66858,-104.9583 c 0,0 -2.65144,-17.12367 -18.05159,-21.00049 -10.77086,-2.71145 -35.4346,-4.21188 -35.4346,-4.21188 z m 93.85792,3.61097 0,38.85439 c 1.13169,0.0629 2.10619,0.0943 2.92351,0.0943 3.64653,0 6.16138,-0.8802 7.54455,-2.64059 1.44603,-1.82327 2.16905,-5.5641 2.16905,-11.22251 l 0,-12.5428 c 0,-5.21831 -0.81732,-8.61335 -2.45197,-10.18513 -1.63465,-1.57178 -5.0297,-2.35767 -10.18514,-2.35767 z" />
        <path
           sodipodi:nodetypes="cccccccczccccc"
           inkscape:connector-curvature="0"
           id="path4184"
           style="font-style:normal;font-variant:normal;font-weight:normal;font-stretch:condensed;font-size:193.14028931px;font-family:impact;-inkscape-font-specification:'impact Condensed';fill:#ffffff;stroke:#000000;stroke-opacity:1"
           d="m 508.07717,123.30129 22.72793,119.41846 -40.64622,0 -1.98044,-21.46433 -14.24033,0 -2.35767,21.46433 -41.11775,0 20.18165,-119.41846 c 0,0 7.88011,-14.94936 28.71642,-14.94936 20.83631,0 28.71641,14.94936 28.71641,14.94936 z m -21.03041,76.78482 c -2.01188,-13.52278 -4.02376,-30.21727 -6.03564,-50.08347 -4.02375,22.81661 -6.5386,39.51111 -7.54454,50.08347 z" />
        <path
           inkscape:connector-curvature="0"
           id="path4186"
           style="font-style:normal;font-variant:normal;font-weight:normal;font-stretch:condensed;font-size:193.14028931px;font-family:impact;-inkscape-font-specification:'impact Condensed';fill:#ffffff;stroke:#000000;stroke-opacity:1"
           d="m 628.29302,192.37984 -39.70316,0 0,-26.2756 q 0,-11.46064 -1.3203,-14.25591 -1.22598,-2.88845 -5.5641,-2.88845 -4.90395,0 -6.22424,3.4475 -1.3203,3.44751 -1.3203,14.90814 l 0,70.06828 q 0,10.99476 1.3203,14.34909 1.32029,3.35433 5.94132,3.35433 4.43242,0 5.75272,-3.35433 1.4146,-3.35433 1.4146,-15.74673 l 0,-18.9147 39.70316,0 0,5.87008 q 0,23.38715 -3.39505,33.17062 -3.30074,9.78347 -14.80616,17.14437 -11.41112,7.36089 -28.19773,7.36089 -17.44676,0 -28.76357,-6.24278 -11.31681,-6.24279 -14.99478,-17.23755 -3.67796,-11.08792 -3.67796,-33.26379 l 0,-44.07221 q 0,-16.30577 1.13168,-24.41208 1.13168,-8.19948 6.69578,-15.74673 5.65841,-7.54724 15.56062,-11.83333 9.99652,-4.37927 22.91655,-4.37927 17.54106,0 28.95218,6.70866 11.41112,6.70867 14.99478,16.77167 3.58366,9.96981 3.58366,31.12074 l 0,14.34909 z" />
        <path
           sodipodi:nodetypes="ccccccccccccc"
           inkscape:connector-curvature="0"
           id="path4188"
           style="font-style:normal;font-variant:normal;font-weight:normal;font-stretch:condensed;font-size:193.14028931px;font-family:impact;-inkscape-font-specification:'impact Condensed';fill:#ffffff;stroke:#000000;stroke-opacity:1"
           d="m 643.39054,156.80998 c 0.10059,-17.68994 65.53478,14.49926 65.53478,14.49926 l 0,20.62873 -26.50021,0 0,19.54635 24.80268,0 0,19.61002 -24.80268,0 0,22.66612 29.1408,0 0,14.14222 -68.84395,6.48651 z" />
      </g>
      <path
         sodipodi:nodetypes="cccccccc"
         inkscape:connector-curvature="0"
         id="path4190"
         d="m -1007.6894,178.6946 13.5753,-0.66549 15.08363,34.60571 -10.55855,-2.66198 -10.05575,33.94021 -13.07253,-33.94021 -16.0892,11.97891 z"
         style="fill:#ff6600;fill-rule:evenodd;stroke:#000000;stroke-width:1.14526927px;stroke-linecap:butt;stroke-linejoin:miter;stroke-opacity:1" />
      <g
         transform="translate(-1363.2815,-147.05153)"
         id="text4192"
         style="font-style:normal;font-weight:normal;font-size:75.22609711px;line-height:125%;font-family:sans-serif;letter-spacing:0px;word-spacing:0px;fill:#ffffff;fill-opacity:1;stroke:#000000;stroke-width:1px;stroke-linecap:butt;stroke-linejoin:miter;stroke-opacity:1">
        <path
           sodipodi:nodetypes="ccssscsccsccscssccscscsccscsccsccsc"
           inkscape:connector-curvature="0"
           id="path4197"
           style="font-style:normal;font-variant:normal;font-weight:normal;font-stretch:condensed;font-family:impact;-inkscape-font-specification:'impact Condensed';fill:#ffffff;stroke:#000000;stroke-opacity:1"
           d="m 282.99956,420.82494 -14.36201,0 0,-2.5755 c 0,-1.20189 -0.18366,-1.96739 -0.55097,-2.29648 -0.36731,-0.32909 -0.97951,-0.49363 -1.83658,-0.49363 -0.93053,0 -1.64067,0.22178 -2.13042,0.66533 -0.46527,0.44356 -0.6979,1.11605 -0.6979,2.01747 0,1.15897 0.26936,2.03178 0.80809,2.61842 0.51424,0.58664 1.97126,1.2949 4.37105,2.12478 6.88103,2.38949 11.21535,4.34972 13.00295,5.88071 1.7876,1.53099 2.6814,3.99917 2.6814,7.40455 -0.11365,4.31633 -2.41372,10.74459 -5.80754,11.8276 -2.84057,0.78695 -8.82497,0.109 -12.59607,-0.78386 -4.02708,-0.95346 -6.42688,-1.88644 -9.3654,-2.80217 -2.91403,-0.91573 -4.82407,-2.08185 -5.73011,-3.49837 -0.90605,-1.41653 -1.35907,-3.42684 -1.35907,-6.03095 l 0,-2.27502 14.36201,0 0,4.2281 c 0,1.30205 0.1959,2.13909 0.58771,2.51111 0.41629,0.37201 1.13867,0.55802 2.16716,0.55802 1.02848,0 1.7876,-0.23609 2.27735,-0.70826 0.51424,-0.47217 0.77136,-1.17328 0.77136,-2.10332 0,-2.04609 -0.47751,-3.38391 -1.43253,-4.01348 -0.97951,-0.62956 -3.39154,-1.68122 -7.2361,-3.15498 -3.84457,-1.48806 -6.39128,-2.56833 -7.64015,-3.24082 -1.24887,-0.67249 -2.2896,-1.60253 -3.12218,-2.79012 -0.80809,-1.18759 -1.21214,-2.70427 -1.21214,-4.55004 0,-2.66134 0.57546,-4.60727 1.72638,-5.83779 1.17541,-1.23051 3.06096,-2.18917 5.65665,-2.87596 2.59569,-0.70111 5.73011,-1.05166 9.40326,-1.05166 4.01598,0 7.43201,0.37917 10.24809,1.13751 2.84057,0.75834 4.71387,1.717 5.61992,2.87597 0.93053,1.14466 1.39579,3.09774 1.39579,5.85925 z" />
        <path
           inkscape:connector-curvature="0"
           id="path4199"
           style="font-style:normal;font-variant:normal;font-weight:normal;font-stretch:condensed;font-family:impact;-inkscape-font-specification:'impact Condensed';fill:#ffffff;stroke:#000000;stroke-opacity:1"
           d="m 325.27751,431.66425 -15.46396,0 0,-8.41642 q 0,-3.67098 -0.51424,-4.56635 -0.47751,-0.92521 -2.16715,-0.92521 -1.91004,0 -2.42428,1.10428 -0.51424,1.10429 -0.51424,4.77527 l 0,22.44378 q 0,3.52177 0.51424,4.5962 0.51424,1.07444 2.31408,1.07444 1.72638,0 2.24062,-1.07444 0.55097,-1.07443 0.55097,-5.04388 l 0,-6.05862 15.46396,0 0,1.88026 q 0,7.49121 -1.32233,10.62498 -1.2856,3.13377 -5.76684,5.49156 -4.44452,2.3578 -10.98272,2.3578 -6.79533,0 -11.20311,-1.99965 -4.40778,-1.99964 -5.8403,-5.52141 -1.43253,-3.55161 -1.43253,-10.65482 l 0,-14.11691 q 0,-5.22295 0.44078,-7.8195 0.44077,-2.6264 2.60793,-5.04388 2.20389,-2.41748 6.0607,-3.79037 3.89354,-1.40274 8.92575,-1.40274 6.83206,0 11.27657,2.14887 4.44451,2.14887 5.84031,5.37219 1.39579,3.19345 1.39579,9.96837 l 0,4.5962 z" />
        <path
           sodipodi:nodetypes="ccccccccccccc"
           inkscape:connector-curvature="0"
           id="path4201"
           style="font-style:normal;font-variant:normal;font-weight:normal;font-stretch:condensed;font-family:impact;-inkscape-font-specification:'impact Condensed';fill:#ffffff;stroke:#000000;stroke-width:0.98755103px;stroke-opacity:1"
           d="m 366.45978,412.24988 0,55.02199 -15.46941,-0.43758 0,-24.70267 -4.6298,0 0,24.26509 -15.46941,-2.62549 0,-51.52134 15.46941,0 0,18.42548 4.6298,0 0,-18.42548 z" />
        <path
           inkscape:connector-curvature="0"
           id="path4203"
           style="font-style:normal;font-variant:normal;font-weight:normal;font-stretch:condensed;font-family:impact;-inkscape-font-specification:'impact Condensed';fill:#ffffff;stroke:#000000;stroke-width:0.9882735px;stroke-opacity:1"
           d="m 407.96596,445.07089 q 0,8.46536 -0.44092,12.00414 -0.40418,3.50411 -2.64554,6.41841 -2.20461,2.9143 -5.98919,4.47554 -3.78459,1.56122 -8.81845,1.56122 -4.77666,0 -8.59799,-1.45715 -3.78458,-1.49184 -6.09943,-4.44084 -2.31483,-2.94898 -2.75576,-6.4184 -0.44092,-3.4694 -0.44092,-12.14292 l 0,-9.61025 q 0,-8.46535 0.40418,-11.96945 0.44092,-3.5388 2.64554,-6.4531 2.24135,-2.9143 6.02593,-4.47553 3.78459,-1.56123 8.81845,-1.56123 4.77666,0 8.56125,1.49183 3.82132,1.45717 6.13617,4.40615 2.31483,2.949 2.75576,6.41841 0.44092,3.4694 0.44092,12.14292 l 0,9.61025 z m -15.46903,-18.45724 q 0,-3.92042 -0.47766,-4.99594 -0.44093,-1.1102 -1.87393,-1.1102 -1.21253,0 -1.87391,0.90204 -0.62464,0.86734 -0.62464,5.2041 l 0,26.22872 q 0,4.89186 0.40418,6.03676 0.44092,1.1449 1.98415,1.1449 1.57997,0 2.02089,-1.31837 0.44092,-1.31838 0.44092,-6.27963 l 0,-25.81238 z" />
        <path
           inkscape:connector-curvature="0"
           id="path4205"
           style="font-style:normal;font-variant:normal;font-weight:normal;font-stretch:condensed;font-family:impact;-inkscape-font-specification:'impact Condensed';fill:#ffffff;stroke:#000000;stroke-opacity:1"
           d="m 449.09936,438.29884 q 0,7.13619 -0.44077,10.11935 -0.40405,2.95391 -2.64467,5.41063 -2.20389,2.45672 -5.98723,3.77282 -3.78335,1.3161 -8.81556,1.3161 -4.7751,0 -8.59517,-1.22836 -3.78335,-1.25761 -6.09743,-3.74357 -2.31408,-2.48597 -2.75486,-5.41063 -0.44078,-2.92467 -0.44078,-10.23634 l 0,-8.10132 q 0,-7.13619 0.40405,-10.0901 0.44077,-2.98316 2.64466,-5.43988 2.24063,-2.45672 6.02397,-3.77282 3.78334,-1.3161 8.81556,-1.3161 4.77509,0 8.55843,1.2576 3.82008,1.22837 6.13416,3.71433 2.31409,2.48597 2.75487,5.41064 0.44077,2.92466 0.44077,10.23633 l 0,8.10132 z m -15.46395,-15.55922 q 0,-3.30488 -0.47751,-4.21152 -0.44078,-0.93589 -1.87331,-0.93589 -1.21214,0 -1.87331,0.76041 -0.62443,0.73116 -0.62443,4.387 l 0,22.11048 q 0,4.12378 0.40404,5.08892 0.44078,0.96514 1.98351,0.96514 1.57945,0 2.02023,-1.11138 0.44078,-1.11138 0.44078,-5.29365 l 0,-21.75951 z" />
        <path
           sodipodi:nodetypes="ccccccc"
           inkscape:connector-curvature="0"
           id="path4207"
           style="font-style:normal;font-variant:normal;font-weight:normal;font-stretch:condensed;font-family:impact;-inkscape-font-specification:'impact Condensed';fill:#ffffff;stroke:#000000;stroke-width:0.95882517px;stroke-opacity:1"
           d="m 470.37249,410.80931 0,26.96712 9.42069,-3.24436 -0.50601,7.67395 -24.40732,7.41569 0,-38.8124 z" />
      </g>
    </g>
  </g>
</svg>
